<?xml version="1.0" encoding="UTF-8"?>
<svg id="Layer_1" data-name="Layer 1" xmlns="http://www.w3.org/2000/svg" viewBox="0 0 200 15" preserveAspectRatio="none">
  <path d="M0,2.5c6.66,0,6.66,10,13.33,10S20,2.5,26.66,2.5s6.66,10,13.33,10,6.67-10,13.33-10,6.67,10,13.33,10,6.67-10,13.33-10,6.67,10,13.33,10,6.67-10,13.33-10,6.67,10,13.33,10,6.66-10,13.33-10,6.67,10,13.33,10,6.67-10,13.34-10,6.67,10,13.33,10,6.67-10,13.34-10,6.67,10,13.34,10" fill="none" stroke="#000" stroke-linecap="square" stroke-miterlimit="10"/>
</svg>