<?xml version="1.0" encoding="UTF-8"?><svg id="a" xmlns="http://www.w3.org/2000/svg" viewBox="0 0 512 512"><path d="M116.62,438.24c13.91-18.65,27.82-31.11,41.73-49.76,29.14,40.68,83.13,57.04,133.12,54.83,24.44-1.08,49.37-6.22,69.7-19.82,20.33-13.6,35.15-38.13,34.16-62.57.63-25.42-11.04-52.37-31.66-69.01-20.62-16.64-46.23-25.59-71.27-34.23-15.98-5.51-32.62-12.31-48.61-17.82-14.32-6-29.27-12.46-38.97-24.58-17.06-21.32-11.94-53.93,3.85-76.21,5.54-7.82,12.41-14.97,21.01-19.22,9.73-4.81,20.93-5.59,31.79-5.64,14.88-.07,30.05,1.1,43.86,6.63,13.82,5.53,26.24,15.93,31.38,29.9,7.18-20.05,14.48-39.72,22.77-59.34-6.5,5.7-12.45,11.97-18.7,17.95-8.32-20.95-31.64-31.54-53.55-36.84-15.67-3.79-32.27-5.92-47.81-1.62-17.99,4.97-32.7,18.07-44.29,32.71-18.83,23.81-29.65,49.22-29.65,84.01-.14,21.5,16.16,41.94,35.09,52.94s40.85,15.43,61.42,22.91c22.61,8.22,43.83,20.26,62.47,35.47,18.06,14.73,34.92,36.99,28.59,59.42-9.18,29.49-57.43,51.03-95.2,50.6-27.88-.32-57.08-10.03-74.26-31.99-9.75-12.46-14.94-27.84-18.82-43.18-16.01,34.82-32.01,69.64-48.02,104.46h-.16Z" fill="#88c86f"/><path d="M117.91,439c10.04-13.43,21.79-25.38,32.55-38.2,3.16-3.77,6.23-7.62,9.18-11.56h-2.59c13.77,19.15,33.2,33.21,54.84,42.27,21.92,9.17,45.86,13.36,69.56,13.49,26.46.15,54.33-4.14,77.23-18.14,21.06-12.87,37-35.9,38.14-60.98.55-12.07-.92-24.19-4.9-35.62-4.07-11.72-10.48-22.64-18.95-31.72-9.08-9.75-20.62-17.15-32.4-23.2s-25.05-11.14-37.96-15.69c-6.85-2.42-13.74-4.74-20.56-7.25-7.26-2.67-14.47-5.43-21.71-8.14s-13.88-4.84-20.63-7.74c-5.95-2.55-11.85-5.25-17.43-8.56-10.53-6.25-19.37-14.93-23.55-26.65-3.95-11.09-3.8-23.27-1.03-34.61,2.9-11.9,8.62-23.12,16.57-32.43,4.18-4.9,9.02-9.27,14.7-12.37,6.18-3.36,13.16-4.95,20.11-5.64s14.42-.69,21.6-.41,14.76,1.03,21.98,2.66c12.58,2.85,24.62,8.55,33.49,18.1,3.92,4.21,7.09,9.12,9.11,14.52.52,1.4,2.38,1.44,2.89,0,5.51-15.37,11.15-30.69,17.22-45.85,1.76-4.39,3.56-8.77,5.4-13.13.64-1.53-1-3.01-2.36-1.82-6.49,5.71-12.46,11.97-18.7,17.95l2.51.66c-9.02-22.45-33.5-32.89-55.51-38.11-14.79-3.51-30.44-5.52-45.43-1.99-12.73,3-24.05,10.11-33.6,18.88s-17.32,18.75-24.05,29.45c-6.32,10.05-11.33,20.92-14.61,32.34-3.6,12.56-5.19,25.77-5.04,38.82s5.58,24.2,13.16,33.86c8.19,10.43,18.96,18.28,30.89,23.94,12.98,6.15,26.84,10.04,40.49,14.36,13.81,4.36,27.23,9.59,40.03,16.38,12.55,6.66,24.51,14.55,35.47,23.6,17.98,14.86,37.82,40.45,24.56,64.45-4.82,8.73-12.46,15.71-20.63,21.28-9.56,6.51-20.2,11.4-31.19,14.93-10.94,3.52-22.36,5.77-33.86,6.21-12.25.47-24.66-1.06-36.43-4.51-11.69-3.43-22.92-8.94-32.2-16.92-10.31-8.86-17.34-20.48-22.11-33.12-2.39-6.35-4.28-12.88-5.95-19.45-.3-1.17-2.19-1.56-2.74-.36-12.46,27.1-24.91,54.2-37.37,81.3-3.55,7.72-7.1,15.44-10.65,23.16l1.3-.74h-.16c-1.93,0-1.93,3,0,3h.16c.49,0,1.08-.28,1.3-.74,12.46-27.1,24.91-54.2,37.37-81.3,3.55-7.72,7.1-15.44,10.65-23.16l-2.74-.36c3.45,13.59,7.88,27.24,15.7,39,6.9,10.39,16.41,18.72,27.33,24.67,21.21,11.55,46.77,14.82,70.48,11.14,11.69-1.82,23.12-5.21,33.95-9.95,10.11-4.42,19.8-10.12,28.03-17.51,7.08-6.35,13.66-14.55,15.98-23.96,3.12-12.67-.95-25.55-7.81-36.26-7.44-11.62-17.75-20.89-28.72-29.11-11.39-8.53-23.63-15.93-36.47-22.06-13.09-6.24-26.75-10.76-40.58-15.05s-27.48-8.61-39.92-15.85c-10.89-6.34-20.45-15.38-26.9-26.24-3.17-5.34-5.54-11.14-6.7-17.25-1.22-6.42-.8-13.16-.33-19.64.92-12.42,3.54-24.69,8.08-36.29s10.55-21.62,17.71-31.25c7.67-10.31,16.57-19.98,27.29-27.17,5.39-3.61,11.22-6.57,17.42-8.51,7.22-2.26,14.78-3.05,22.33-2.86s15.4,1.4,22.94,3.07c5.96,1.32,11.86,2.92,17.61,4.98,10.94,3.9,21.69,9.5,29.73,18.04,3.73,3.96,6.79,8.57,8.82,13.63.41,1.03,1.63,1.51,2.51.66,6.23-5.99,12.21-12.24,18.7-17.95l-2.36-1.82c-6.43,15.24-12.36,30.67-18.04,46.2-1.64,4.49-3.27,8.99-4.88,13.49h2.89c-4.28-11.45-13.07-20.55-23.53-26.64-12.18-7.08-26.32-9.82-40.24-10.67-7.23-.44-14.53-.51-21.76-.06s-14.03,1.51-20.54,4.17c-11.99,4.89-21.17,14.95-27.77,25.84-11.97,19.76-16.73,46.85-4.52,67.63,6.48,11.02,17.19,18.4,28.44,23.96,12.78,6.31,26.37,10.71,39.69,15.73,7.12,2.68,14.23,5.37,21.41,7.9,6.62,2.33,13.26,4.57,19.84,6.98,12.99,4.76,25.84,10.08,37.8,17.09,11.29,6.62,21.75,14.68,29.6,25.25,7.34,9.89,12.54,21.31,15.24,33.33,1.31,5.85,2.01,11.83,2.03,17.83s-.17,12.13-1.57,18.16c-2.83,12.13-9.05,23.4-17.34,32.65-18.14,20.26-45.56,28.83-71.89,31.49-24.13,2.44-48.83.66-72.19-6.01-22.49-6.42-43.9-17.6-60.39-34.39-3.93-4-7.56-8.3-10.84-12.86-.7-.97-1.89-.94-2.59,0-10.04,13.43-21.79,25.38-32.55,38.2-3.16,3.77-6.23,7.62-9.18,11.56-1.16,1.55,1.45,3.04,2.59,1.51Z" fill="#88c86f"/></svg>