<svg xmlns="http://www.w3.org/2000/svg" width="512" height="512" viewBox="0 0 512 512"><path d="M111.4,324.91c-1.66,7.23-1.36,14.4-1.18,21.53l.43,16.94c.53,20.69,31.29,33.02,49.13,39.28l33.25,11.67c6.95,2.44,13.99,3.95,21.43,3.89l40.45-.32c26.56-.21,48.6-15.02,67.76-32.18,9.85-8.82,18.21-18.37,25.66-29.27,2.4-3.51,4.58-7.03,4.56-11.51l-.15-29.43c-.07-13.83-9.38-28.58-20.43-36.97-5.93-4.5-11.76-8.78-18.62-11.83l-24.56-10.91c-5.69-2.53-11.28-4.56-17.34-6.14l-32.44-8.45-50.14-10.35c-9.54-1.97-18.46-4.26-27.66-7.29-17.88-5.9-34.57-14.83-45.99-29.91-3.05-4.03-4.55-8.47-4.74-13.5-.36-9.43-.31-18.56,0-28,.37-10.84,3.46-20.71,9.64-29.57,7.26-10.41,15.47-19.57,25.42-27.5,6.63-5.28,13.09-10.15,20.18-14.79,7.3-4.78,14.96-8.17,23.08-11.38,6.84-2.7,13.56-5.86,21.04-6.37,16.18-1.1,31.94-1.32,48.25-.63,17.31.73,33.51,6.5,47.94,15.78,8.03,5.17,15.51,10.52,22.55,16.92,5.47,4.98,9.96,10.63,14.62,16.34,3.33,4.08,6.09,8.51,7.96,13.43l.51,7.69c.07,1.03.79,2.46,1.51,2.83s2.5.22,3.6,0l36.67-31.17c7.35-6.57,14.9-12.09,23.28-17.22,1.93-1.18,4.17-2.7,5.36-4.58l9.9-15.6,4.42-8.86c.03,5.17.25,9.9-1.19,14.69l-20.67,68.55c-2.99,9.91-3.85,19.61-3.68,29.9l.43,25.67-13.5-9.14-45.77-34.54-25.18-19.8c-7.65-6.02-16-10.62-24.32-15.56-3.38-2.01-7.18-2.43-10.99-2.43l-28.99-.02c-9.5,0-18.33,2.77-26.63,7.24-9.91,5.34-18.95,11.61-27.01,19.38l-9.93,9.58c-7.08,6.83-6.54,26.29-3.65,36.86,2.5,9.16,8.8,15.52,16.5,20.53,9.75,6.35,19.21,12.08,30.06,16.39l23.22,9.22,19.63,6.4,37.7,13.2c10.25,3.59,19.27,8.75,28.32,14.64,11.02,7.18,30.02,21.93,29.93,34.85l-.17,25.38c-.68,13.37-3.3,26.21-7.77,38.76l-11.05,30.99c-4.36,12.25-12.57,22.52-21.68,31.61-5.04,5.02-10.52,8.59-16.82,11.79-11.59,5.89-23.31,11.06-36.01,14.25l-27.04,5.57c-5.27,1.09-10.22,1-15.6.98l-40.93-.16c-21.22-.08-40.23-9.75-56.08-23.28l-15.64-13.35c-8.78-7.5-16.37-15.77-25.38-23.03l-22.71-18.29c-2.45-1.98-5.92-2.01-9.21-2.45l28.25-50.68c3.89-6.99,7.22-13.63,12.06-20.06.54-.7.72-.63.64.08-1.38,4.69-3.39,8.87-4.5,13.71Z" fill="#88c86f"/></svg>